{"title":"Super Fly (1972) [thePiratePimp]","uid":11878770,"size":734087168,"categoryP":"video","categoryS":"movies","magnet":"?xt=urn:btih:8931e7d4d9af77d8efda1ececb87e5bf302a9c16&amp;dn=Super+Fly+%281972%29+%5BthePiratePimp%5D&amp;tr=udp%3A%2F%2Ftracker.openbittorrent.com%3A80&amp;tr=udp%3A%2F%2Fopen.demonii.com%3A1337&amp;tr=udp%3A%2F%2Ftracker.coppersurfer.tk%3A6969&amp;tr=udp%3A%2F%2Fexodus.desync.com%3A6969","seeders":18,"leechers":0,"uploader":"thepiratepimp","files":1,"time":1430633595,"description":"Super Fly (1972) [thePiratePimp]\n &lt;a href=&quot;\nhttps://yuq.me/users/23/020/7uNHQjJnX0.png&quot; rel=&quot;nofollow&quot; target=&quot;_NEW&quot;&gt;\nhttps://yuq.me/users/23/020/7uNHQjJnX0.png&lt;/a&gt; &lt;a href=&quot;\nhttps://yuq.me/users/23/020/5KjlDXtnHR.jpg&quot; rel=&quot;nofollow&quot; target=&quot;_NEW&quot;&gt;\nhttps://yuq.me/users/23/020/5KjlDXtnHR.jpg&lt;/a&gt; &lt;a href=&quot;\nhttps://yuq.me/users/23/020/rC5FHQJ0j3.png&quot; rel=&quot;nofollow&quot; target=&quot;_NEW&quot;&gt;\nhttps://yuq.me/users/23/020/rC5FHQJ0j3.png&lt;/a&gt;\n\nSuper Fly is a cocaine dealer who begins to realize that his life will soon end with either prison or his death. He decides to build an escape from the life by making his biggest deal yet, converting the coke to cash and running off to start a new life. The problem is that the Mob does not have a retirement plan and will give him a choice of staying and selling for them or dying if they find out his intentions.\n\nGeneral\nComplete name : Super Fly (1972) [thePiratePimp].avi\nFormat : AVI\nFormat/Info : Audio Video Interleave\nFile size : 700 MiB\nDuration : 1h 34mn\nOverall bit rate mode : Variable\nOverall bit rate : 1 037 Kbps\nWriting application : VirtualDubMod 1.5.4.1 (build 2178/release)\nWriting library : VirtualDubMod build 2178/release\n\nVideo\nID : 0\nFormat : MPEG-4 Visual\nFormat profile : Advanced Simple@L5\nFormat settings, BVOP : 1\nFormat settings, QPel : No\nFormat settings, GMC : No warppoints\nFormat settings, Matrix : Custom\nCodec ID : XVID\nCodec ID/Hint : XviD\nDuration : 1h 34mn\nBit rate : 941 Kbps\nWidth : 720 pixels\nHeight : 416 pixels\nDisplay aspect ratio : 1.731\nFrame rate : 23.976 fps\nColor space : YUV\nChroma subsampling : 4:2:0\nBit depth : 8 bits\nScan type : Progressive\nCompression mode : Lossy\nBits/(Pixel*Frame) : 0.131\nStream size : 635 MiB (91%)\nWriting library : XviD 1.2.1 (UTC 2008-12-04)\n\nAudio\nID : 1\nFormat : MPEG Audio\nFormat version : Version 1\nFormat profile : Layer 3\nMode : Joint stereo\nMode extension : MS Stereo\nCodec ID : 55\nCodec ID/Hint : MP3\nDuration : 1h 31mn\nBit rate mode : Variable\nBit rate : 86.6 Kbps\nChannel(s) : 2 channels\nSampling rate : 48.0 KHz\nCompression mode : Lossy\nStream size : 56.8 MiB (8%)\nAlignment : Aligned on interleaves\nInterleave, duration : 25 ms (0.59 video frame)\nInterleave, preload duration : 456 ms\nLanguage : English","torrent":{"xt":"urn:btih:8931e7d4d9af77d8efda1ececb87e5bf302a9c16","amp;dn":"Super+Fly+%281972%29+%5BthePiratePimp%5D","amp;tr":["udp%3A%2F%2Ftracker.openbittorrent.com%3A80","udp%3A%2F%2Fopen.demonii.com%3A1337","udp%3A%2F%2Ftracker.coppersurfer.tk%3A6969","udp%3A%2F%2Fexodus.desync.com%3A6969"],"infoHash":"8931e7d4d9af77d8efda1ececb87e5bf302a9c16","infoHashBuffer":{"type":"Buffer","data":[137,49,231,212,217,175,119,216,239,218,30,206,203,135,229,191,48,42,156,22]},"announce":[],"urlList":[]}}